<svg width="136" height="136" viewBox="0 0 136 136" fill="none" xmlns="http://www.w3.org/2000/svg">
<rect width="136" height="136" rx="68" fill="white"/>
<path d="M18.216 33.84C18.456 33.12 18.936 32.24 19.656 31.2C20.376 30.16 21.376 29.2 22.656 28.32C23.936 27.44 25.016 27 25.896 27H80.256C81.456 27 81.776 27.76 81.216 29.28C80.576 31.28 79.336 32.92 77.496 34.2C75.736 35.48 74.416 36.12 73.536 36.12H54.936L48.216 114.84C48.136 115.72 47.616 116.8 46.656 118.08C45.696 119.36 44.696 120.36 43.656 121.08C42.616 121.8 41.776 122.24 41.136 122.4C39.696 122.8 39.016 122.36 39.096 121.08L46.296 36.12H19.176C18.056 36.12 17.736 35.36 18.216 33.84Z" fill="#E63B2E"/>
<path d="M127.143 54.8825L121.497 49.2373C120.157 47.8972 117.99 47.8972 116.664 49.2373L82.5174 83.3797L66.6346 67.4846C65.2944 66.1446 63.1273 66.1446 61.8014 67.4846L56.1411 73.1441C54.8009 74.4841 54.8009 76.651 56.1411 77.9911L80.0937 101.955C81.4339 103.295 83.601 103.295 84.927 101.955L127.129 59.7295C128.469 58.3752 128.469 56.2083 127.143 54.8825ZM80.9064 69.9936C81.7903 70.8917 83.2446 70.8917 84.1285 69.9936L113.784 40.3132C114.668 39.4151 114.668 37.9752 113.784 37.0914L107.34 30.6335C106.456 29.7354 105.001 29.7354 104.118 30.6335L82.5174 52.231L74.6188 44.319C73.7348 43.4209 72.2806 43.4209 71.3966 44.319L64.938 50.7769C64.054 51.675 64.054 53.1148 64.938 53.9987L80.9064 69.9936Z" fill="#1A1A1A"/>
</svg>
