<?xml version="1.0" encoding="utf-8" ?>
<svg xmlns="http://www.w3.org/2000/svg" xmlns:xlink="http://www.w3.org/1999/xlink" width="1024" height="1024">
	<path fill="#A7C957" transform="scale(2 2)" d="M105.815 142.006C109.739 141.722 113.849 141.984 117.797 141.993L340.81 142.007C361.721 142.006 382.904 141.604 403.783 142.006C411.774 142.16 409.514 148.608 410.392 154.499C412.44 168.233 425.807 181.534 440.117 181.799C443.376 181.859 449.125 180.986 449.435 185.727C449.871 192.369 449.465 199.32 449.465 205.995L449.454 299.898C449.454 306.736 449.919 313.723 449.665 320.537C449.392 327.874 443.351 325.887 438.003 326.337C406.607 328.979 415.016 357.458 408.899 364.748L406.481 364.748L117.298 364.769C103.787 364.782 101.938 367.931 101.1 353.939C99.9724 335.111 83.7285 325.072 66.0237 326.248C65.9695 326.207 65.9148 326.165 65.861 326.123L65.5934 325.911C60.4264 321.871 62.8852 306.509 62.8866 299.83L62.8828 196.971C62.8411 184.011 59.8578 182.61 73.5499 181.737C88.0957 180.809 99.8227 166.579 101.539 152.829C102.1 148.338 100.219 143.554 105.815 142.006ZM111.567 151.512C109.427 173.918 94.7658 189.079 72.6059 191.517L72.6059 316.193C90.5729 317.495 105.592 329.239 110.04 346.866C110.701 349.489 111.033 352.18 111.567 354.829C118.153 354.817 124.743 354.756 131.328 354.829C133.521 356.54 134.364 356.592 136.514 354.829C139.22 355.081 142.133 354.856 144.865 354.851L401.292 354.829C401.304 333.16 418.575 317.274 439.739 316.193L439.739 191.517C418.053 187.452 401.722 175.099 400.451 151.512L136.514 151.512C129.679 150.851 118.639 151.423 111.567 151.512Z"/>
	<path fill="#A7C957" transform="scale(2 2)" d="M136.514 151.512L400.451 151.512C401.722 175.099 418.053 187.452 439.739 191.517L439.739 316.193C418.575 317.274 401.304 333.16 401.292 354.829L144.865 354.851C142.133 354.856 139.22 355.081 136.514 354.829C138.532 349.786 129.84 349.018 131.328 354.829C124.743 354.756 118.153 354.817 111.567 354.829C111.033 352.18 110.701 349.489 110.04 346.866C105.592 329.239 90.5729 317.495 72.6059 316.193L72.6059 191.517C94.7658 189.079 109.427 173.918 111.567 151.512C118.639 151.423 129.679 150.851 136.514 151.512C134.793 151.707 133.055 151.578 131.328 151.512C131.262 154.424 130.607 159.092 132.089 161.681C138.447 164.565 136.634 154.875 136.514 151.512ZM134.875 297.818C137.115 296.761 139.847 283.833 133.015 284C131.015 285.291 128.126 297.666 134.875 297.818ZM134.131 230.198C137.873 229.361 138.932 217.615 134.131 216.526C130.478 217.423 128.583 229.363 134.131 230.198ZM133.015 328.756C131.804 329.572 127.485 341.882 134.875 341.775C136.19 341.004 139.624 328.522 133.015 328.756ZM133.015 171.991C131.138 173.265 128.472 185.624 134.875 184.98C136.484 183.693 139.87 171.802 133.015 171.991ZM134.131 261.544C133.299 261.721 132.584 261.816 131.911 262.38C130.632 264.97 129.532 273.501 134.131 275.223C138.712 274.123 137.46 262.359 134.131 261.544ZM133.015 193.99C131.56 194.893 127.642 206.036 134.875 207.624C136.171 206.979 140.229 193.722 133.015 193.99ZM133.015 306.223C131.227 307.62 128.154 319.863 134.875 320.035C136.678 318.823 139.736 306.25 133.015 306.223ZM134.875 252.889C137.347 250.649 139.045 239.736 133.015 239.228C129.656 241.656 129.665 252.653 134.875 252.889Z"/>
	<path fill="#A7C957" transform="scale(2 2)" d="M176.16 184.98L353.37 184.973C361.549 184.968 369.883 184.614 378.039 185.143C391.402 186.009 387.524 199.312 387.512 209.793L387.519 289.465C387.525 297.636 387.923 306.013 387.338 314.155C386.959 319.422 384.564 321.377 379.351 321.753L197.74 321.755C190.443 321.756 183.052 322.023 175.767 321.762C164.639 321.363 168.201 306.503 168.211 298.014L168.215 216.169C168.216 206.362 163.902 186.127 176.16 184.98Z"/>
	<path fill="#A7C957" transform="scale(2 2)" d="M193.243 211.272C201.489 210.903 209.935 211.269 218.202 211.27L331.226 211.274C336.616 211.274 362.134 209.923 365.516 212.248C369.097 214.709 367.22 220.281 363.233 220.956L214.101 220.958C205.87 220.96 191.091 224.291 188.855 215.671C189.598 213.246 190.636 211.884 193.243 211.272Z"/>
	<path fill="#A7C957" transform="scale(2 2)" d="M340.936 285.004C345.502 285.007 363.388 283.901 366.028 286.28C367.904 287.97 368.265 291.629 366.398 293.459C363.591 296.208 356.544 295.038 353.005 295.006L284.375 295.001C280.116 295 261.838 296.023 259.41 293.838C257.256 291.9 256.997 288.679 259.051 286.563C261.663 283.872 268.841 284.974 272.191 284.999L340.936 285.004Z"/>
	<path fill="#A7C957" transform="scale(2 2)" d="M195.692 248.491L283.536 248.477C287.024 248.476 290.78 248.202 294.238 248.591C298.95 249.12 301.969 257.921 292.009 257.959L206.003 257.964C202.525 257.964 193.278 259.021 190.63 256.44C186.572 252.486 190.279 248.517 195.692 248.491Z"/>
	<path fill="#A7C957" transform="scale(2 2)" d="M223.686 285.004C226.421 285.208 230.729 284.444 232.921 286.386C236.191 289.281 234.444 294.249 230.353 294.874C227.018 295.383 223.201 295.007 219.813 294.99L200.375 295.001C197.54 295.024 192.903 295.66 190.665 293.562C187.257 290.368 189.568 285.964 193.621 285.321C197.661 284.679 202.111 284.993 206.206 285.01L223.686 285.004Z"/>
	<path fill="#A7C957" transform="scale(2 2)" d="M329.499 248.491C337.122 248.847 344.923 248.486 352.563 248.478C356.243 248.475 368.542 247.039 367.36 253.614C366.994 255.648 365.769 256.852 364.116 257.959C357.12 257.777 334.285 259.011 328.838 257.4C324.4 256.088 325.309 250.363 329.499 248.491Z"/>
</svg>
